<svg id="Layer_1" enable-background="new 0 0 506.495 506.495" height="512" viewBox="0 0 506.495 506.495" width="512" xmlns="http://www.w3.org/2000/svg"><path d="m504.182 309.542c-11.022-99.221-44.973-153.865-95.599-153.865-34.18 0-89.83 3.986-107.604 33.104-1.024 1.678-3.055 2.721-5.298 2.721h-84.868c-2.243 0-4.274-1.043-5.298-2.722-17.775-29.119-73.435-33.103-107.603-33.103-50.626 0-84.577 54.644-95.599 153.865-4.57 41.138-2.342 78.855 6.442 109.073 14.79 50.878 45.625 70.792 77.172 70.79 36.61-.003 72.034-29.303 96.185-81.358 3.006-6.48 1.353-14.167-4.051-18.838-10.753-9.296-4.579-26.981 9.544-27.651 6.871-.318 13.074 3.764 15.489 10.175 2.349 6.232 8.313 10.358 14.973 10.358h70.359c6.656 0 12.617-4.121 14.969-10.348 6.03-15.969 29.674-12.182 30.482 4.803.231 4.856-1.755 9.474-5.448 12.669-5.4 4.672-7.05 12.356-4.045 18.833 23.403 50.442 66.945 95.377 119.272 77.435 60.112-20.612 67.566-112.559 60.526-175.941z" fill="#d3d1d1"/><path d="m88.588 339.814c177.857-64.202 331.021 15.696 416.246 41.926 2.404-22.062 2.206-46.46-.653-72.199-11.022-99.221-44.973-153.865-95.599-153.865-34.18 0-89.83 3.986-107.604 33.104-1.024 1.678-3.055 2.721-5.298 2.721h-84.868c-2.243 0-4.274-1.043-5.298-2.722-17.775-29.119-73.435-33.103-107.603-33.103-50.626 0-84.577 54.644-95.599 153.865-1.95 17.557-2.651 34.482-2.144 50.476 25.5-1.948 54.829-8.077 88.42-20.203z" fill="#e0e0e0"/><path d="m220.48 341.961c-31.668-28.794-81.825-4.489-79.827 37.599 1.227 25.826 22.564 45.489 47.646 45.488 43.484-.001 64.323-53.862 32.181-83.087z" fill="#494949"/><path d="m365.842 375.026c0-23.242-21.722-46.784-49.967-45.434-26.362 1.252-46.685 23.6-45.435 49.966 1.227 25.826 22.563 45.489 47.646 45.489 27.414 0 49.042-22.949 47.756-50.021z" fill="#494949"/><path d="m472.219 197.025c-16.318-27.115-37.804-41.349-63.635-41.349-34.18 0-89.83 3.986-107.604 33.104-1.024 1.678-3.055 2.721-5.298 2.721h-84.868c-2.243 0-4.274-1.043-5.298-2.722-17.775-29.119-73.435-33.103-107.603-33.103-38.646 0-67.573 31.846-84.003 91.053 32.337 2.472 69.956 1.499 113.521-4.733 218.429-31.246 299.224 83.739 344.788-44.971z" fill="#eaeaea"/><path d="m306.088 181.835c-1.916 2.196-3.635 4.531-5.109 6.946-1.024 1.678-3.054 2.721-5.297 2.721h-84.869c-2.243 0-4.273-1.043-5.298-2.722-1.472-2.411-3.19-4.747-5.108-6.944-9.699-11.111-28.053-4.224-28.053 10.522v70.167c0 24.875 20.237 45.113 45.113 45.113h71.562c24.876 0 45.113-20.237 45.113-45.113v-70.167c0-14.751-18.354-21.631-28.054-10.523z" fill="#5b5b5b"/><path d="m504.182 309.542c-11.022-99.221-44.973-153.865-95.599-153.865-30.495 0-76.468 3.198-99.318 23.371-1.815 1.213-3.361 2.792-4.55 4.625-1.395 1.637-2.654 3.334-3.737 5.108-1.024 1.678-3.055 2.721-5.298 2.721h-84.868c-2.243 0-4.274-1.043-5.298-2.722-1.082-1.773-2.34-3.469-3.734-5.105-1.189-1.835-2.735-3.414-4.552-4.628-22.85-20.172-68.823-23.37-99.317-23.37-50.626 0-84.577 54.644-95.599 153.865-4.57 41.138-2.342 78.855 6.442 109.073 14.79 50.878 45.625 70.792 77.172 70.79 32.94-.003 64.914-23.734 88.587-66.407 28.973 8.802 58.435-11.304 61.361-40.908h34.756c2.972 29.592 32.391 49.679 61.35 40.907 23.673 42.677 55.644 66.408 88.587 66.408 31.508 0 62.368-19.862 77.172-70.79 8.785-30.218 11.012-67.935 6.443-109.073zm-293.369-86.041c92.02 0 86.593.241 91.329-.564v39.586c0 7.23-5.883 13.113-13.113 13.113h-71.562c-7.23 0-13.113-5.882-13.113-13.113v-39.586c2.118.36 4.275.564 6.459.564zm-10.803 164.39c-5.856 6.44-15.812 6.916-22.255 1.058-10.359-9.42-4.074-26.731 9.851-27.392 13.899-.664 21.864 15.927 12.404 26.334zm118.879 5.137c-13.96.674-21.806-15.993-12.403-26.335 9.387-10.321 26.723-4.179 27.392 9.851.412 8.677-6.312 16.072-14.989 16.484zm114.389 62.183c-20.352 6.98-50.25-3.345-75.377-51.513 21.843-32.796-3.29-75.958-42.025-74.106-15.398.731-28.759 8.724-36.947 20.497h-51.351c-9.08-13.053-24.462-21.311-41.491-20.497-37.045 1.759-57.945 43.438-37.496 74.113-25.126 48.162-55.022 58.484-75.374 51.506-57.926-19.86-46.568-176.651-14.355-236.822 4.067-7.596 16.443-30.712 39.05-30.712 42.073 0 64.472 6.582 74.441 12.628v62.219c0 24.875 20.237 45.113 45.113 45.113h71.562c24.876 0 45.113-20.237 45.113-45.113v-62.219c9.97-6.046 32.369-12.627 74.441-12.627 43.066 0 59.046 82.652 63.794 125.398 8.112 73.013-7.966 131.462-39.098 142.135z"/><circle cx="399.404" cy="254.559" r="19.041"/><circle cx="399.404" cy="319.312" r="19.041"/><ellipse cx="431.78" cy="286.936" rx="19.041" ry="19.041" transform="matrix(.924 -.383 .383 .924 -76.938 187.077)"/><ellipse cx="367.027" cy="286.936" rx="19.041" ry="19.041" transform="matrix(.987 -.16 .16 .987 -41.223 62.497)"/><path d="m141.851 270.936h-16.38v-16.379c0-8.836-7.164-16-16-16s-16 7.164-16 16v16.379h-16.38c-8.836 0-16 7.164-16 16s7.164 16 16 16h16.379v16.38c0 8.836 7.164 16 16 16s16-7.164 16-16v-16.38h16.38c8.836 0 16-7.164 16-16s-7.163-16-15.999-16z"/><path d="m294.469 109.843c6.249-6.249 6.249-16.379 0-22.627-22.144-22.143-58.173-22.142-80.316 0-10.109 10.109-2.812 27.314 11.313 27.314 4.095 0 8.189-1.562 11.313-4.687 9.667-9.666 25.396-9.667 35.062 0 6.249 6.249 16.38 6.249 22.628 0z"/><path d="m203.269 70.089c4.095 0 8.189-1.562 11.313-4.687 21.907-21.906 57.552-21.907 79.458 0 6.248 6.248 16.379 6.249 22.627 0 6.249-6.249 6.249-16.379 0-22.627-34.383-34.383-90.329-34.382-124.713 0-10.109 10.111-2.81 27.314 11.315 27.314z"/><ellipse cx="254.311" cy="143.089" rx="19.041" ry="19.041" transform="matrix(.987 -.16 .16 .987 -19.637 42.584)"/></svg>